<svg width="118" height="33" viewBox="0 0 118 33" fill="none" xmlns="http://www.w3.org/2000/svg">
<path d="M107.186 23.0268C104.773 23.0268 102.679 22.5229 100.903 21.5151C99.1281 20.4808 97.7551 19.1017 96.7843 17.3779C95.8135 15.654 95.3281 13.7445 95.3281 11.6494C95.3281 9.47469 95.8274 7.53868 96.8259 5.84135C97.8522 4.14403 99.2252 2.80473 100.945 1.82346C102.665 0.842196 104.606 0.351562 106.77 0.351562C108.573 0.351562 110.168 0.630031 111.554 1.18697C112.941 1.71738 114.106 2.47322 115.049 3.45449C116.02 4.43576 116.755 5.57615 117.254 6.87566C117.754 8.14866 118.003 9.541 118.003 11.0527C118.003 11.477 117.976 11.9013 117.92 12.3257C117.892 12.7235 117.823 13.0683 117.712 13.36H100.695V8.98406H114.176L111.222 11.0527C111.499 9.91229 111.485 8.9045 111.18 8.02931C110.875 7.12761 110.334 6.42481 109.557 5.92092C108.808 5.3905 107.879 5.12529 106.77 5.12529C105.688 5.12529 104.759 5.37724 103.982 5.88113C103.206 6.38503 102.623 7.12761 102.235 8.10888C101.846 9.09014 101.694 10.2836 101.777 11.6892C101.666 12.9091 101.819 13.9832 102.235 14.9114C102.651 15.8397 103.289 16.569 104.149 17.0994C105.008 17.6033 106.049 17.8552 107.269 17.8552C108.379 17.8552 109.322 17.6431 110.098 17.2187C110.903 16.7944 111.527 16.211 111.97 15.4684L116.963 17.7359C116.519 18.7967 115.812 19.725 114.841 20.5206C113.898 21.3162 112.775 21.9394 111.471 22.3903C110.168 22.8146 108.739 23.0268 107.186 23.0268Z" fill="black"/>
<path d="M47.8447 11.6892C47.8447 8.94973 45.6239 6.72897 42.8845 6.72897C40.145 6.72897 37.9243 8.94973 37.9243 11.6892C37.9243 14.4286 40.145 16.6494 42.8845 16.6494V23.0268C36.6229 23.0268 31.5469 17.9508 31.5469 11.6892C31.5469 5.42758 36.6229 0.351562 42.8845 0.351562C49.1461 0.351562 54.2221 5.42758 54.2221 11.6892C54.2221 17.9508 49.1461 23.0268 42.8845 23.0268V16.6494C45.6239 16.6494 47.8447 14.4286 47.8447 11.6892Z" fill="black"/>
<path d="M22.3368 12.2478C22.3368 9.43262 20.0181 7.08834 17.0812 7.08834C14.6112 7.08843 12.5637 8.75588 11.9888 10.9642C11.8828 11.3713 11.8262 11.8008 11.8262 12.2478C11.8262 15.063 14.1443 17.4072 17.0812 17.4073C20.0181 17.4073 22.3368 15.0631 22.3368 12.2478ZM28.7142 12.2478C28.7142 18.6537 23.4713 23.7848 17.0812 23.7848C14.1166 23.7847 11.3994 22.6799 9.33775 20.8562L6.16012 32.7149L0 31.0638L5.82312 9.33525C7.13068 4.35377 11.69 0.711023 17.0812 0.710938C23.4714 0.710938 28.7142 5.84193 28.7142 12.2478Z" fill="black"/>
<path d="M84.6925 9.93494C84.6924 7.96361 83.0996 6.37741 81.1495 6.37741C79.1993 6.37741 77.6065 7.96361 77.6064 9.93494V22.3209H71.229V9.93494C71.229 7.96361 69.6362 6.37741 67.686 6.37741C65.7359 6.37741 64.1431 7.96361 64.143 9.93494V22.3209H57.7656V9.93494C57.7657 4.45456 62.2007 0 67.686 0C70.2864 0 72.6501 1.00174 74.4177 2.63857C76.1854 1.00174 78.5491 0 81.1495 0C86.6348 0 91.0698 4.45456 91.0699 9.93494V22.3209H84.6925V9.93494Z" fill="black"/>
</svg>
