<svg width="159" height="42" viewBox="0 0 159 42" fill="none" xmlns="http://www.w3.org/2000/svg">
<path d="M107.186 23.0268C104.773 23.0268 102.679 22.5229 100.903 21.5151C99.1281 20.4808 97.7551 19.1017 96.7843 17.3779C95.8135 15.654 95.3281 13.7445 95.3281 11.6494C95.3281 9.47469 95.8274 7.53868 96.8259 5.84135C97.8522 4.14403 99.2252 2.80473 100.945 1.82346C102.665 0.842196 104.606 0.351562 106.77 0.351562C108.573 0.351562 110.168 0.630031 111.554 1.18697C112.941 1.71738 114.106 2.47322 115.049 3.45449C116.02 4.43576 116.755 5.57615 117.254 6.87566C117.754 8.14866 118.003 9.541 118.003 11.0527C118.003 11.477 117.976 11.9013 117.92 12.3257C117.892 12.7235 117.823 13.0683 117.712 13.36H100.695V8.98406H114.176L111.222 11.0527C111.499 9.91229 111.485 8.9045 111.18 8.02931C110.875 7.12761 110.334 6.42481 109.557 5.92092C108.808 5.3905 107.879 5.12529 106.77 5.12529C105.688 5.12529 104.759 5.37724 103.982 5.88113C103.206 6.38503 102.623 7.12761 102.235 8.10888C101.846 9.09014 101.694 10.2836 101.777 11.6892C101.666 12.9091 101.819 13.9832 102.235 14.9114C102.651 15.8397 103.289 16.569 104.149 17.0994C105.008 17.6033 106.049 17.8552 107.269 17.8552C108.379 17.8552 109.322 17.6431 110.098 17.2187C110.903 16.7944 111.527 16.211 111.97 15.4684L116.963 17.7359C116.519 18.7967 115.812 19.725 114.841 20.5206C113.898 21.3162 112.775 21.9394 111.471 22.3903C110.168 22.8146 108.739 23.0268 107.186 23.0268Z" fill="black"/>
<path d="M47.8447 11.6892C47.8447 8.94973 45.6239 6.72897 42.8845 6.72897C40.145 6.72897 37.9243 8.94973 37.9243 11.6892C37.9243 14.4286 40.145 16.6494 42.8845 16.6494V23.0268C36.6229 23.0268 31.5469 17.9508 31.5469 11.6892C31.5469 5.42758 36.6229 0.351562 42.8845 0.351562C49.1461 0.351562 54.2221 5.42758 54.2221 11.6892C54.2221 17.9508 49.1461 23.0268 42.8845 23.0268V16.6494C45.6239 16.6494 47.8447 14.4286 47.8447 11.6892Z" fill="black"/>
<path d="M22.3368 12.2478C22.3368 9.43262 20.0181 7.08834 17.0812 7.08834C14.6112 7.08843 12.5637 8.75588 11.9888 10.9642C11.8828 11.3713 11.8262 11.8008 11.8262 12.2478C11.8262 15.063 14.1443 17.4072 17.0812 17.4073C20.0181 17.4073 22.3368 15.0631 22.3368 12.2478ZM28.7142 12.2478C28.7142 18.6537 23.4713 23.7848 17.0812 23.7848C14.1166 23.7847 11.3994 22.6799 9.33775 20.8562L6.16012 32.7149L0 31.0638L5.82312 9.33525C7.13068 4.35377 11.69 0.711023 17.0812 0.710938C23.4714 0.710938 28.7142 5.84193 28.7142 12.2478Z" fill="black"/>
<path d="M84.6925 9.93494C84.6924 7.96361 83.0996 6.37741 81.1495 6.37741C79.1993 6.37741 77.6065 7.96361 77.6064 9.93494V22.3209H71.229V9.93494C71.229 7.96361 69.6362 6.37741 67.686 6.37741C65.7359 6.37741 64.1431 7.96361 64.143 9.93494V22.3209H57.7656V9.93494C57.7657 4.45456 62.2007 0 67.686 0C70.2864 0 72.6501 1.00174 74.4177 2.63857C76.1854 1.00174 78.5491 0 81.1495 0C86.6348 0 91.0698 4.45456 91.0699 9.93494V22.3209H84.6925V9.93494Z" fill="black"/>
<path d="M154.633 40.9969V37.5369L152.023 33.5469H152.913L155.193 37.0169H154.873L157.143 33.5469H158.033L155.433 37.5369V40.9969H154.633Z" fill="black" fill-opacity="0.65"/>
<path d="M145.484 40.9969V33.5469H148.044C148.531 33.5469 148.958 33.6435 149.324 33.8369C149.691 34.0235 149.974 34.2902 150.174 34.6369C150.381 34.9769 150.484 35.3735 150.484 35.8269C150.484 36.3535 150.344 36.8035 150.064 37.1769C149.791 37.5502 149.418 37.8135 148.944 37.9669L150.684 40.9969H149.744L147.924 37.7869L148.464 38.0969H146.284V40.9969H145.484ZM146.284 37.3469H148.084C148.404 37.3469 148.684 37.2869 148.924 37.1669C149.164 37.0402 149.351 36.8635 149.484 36.6369C149.618 36.4035 149.684 36.1302 149.684 35.8169C149.684 35.5035 149.618 35.2335 149.484 35.0069C149.351 34.7802 149.164 34.6069 148.924 34.4869C148.684 34.3602 148.404 34.2969 148.084 34.2969H146.284V37.3469Z" fill="black" fill-opacity="0.65"/>
<path d="M140.662 40.9969V34.2969H138.602V33.5469H143.502V34.2969H141.462V40.9969H140.662Z" fill="black" fill-opacity="0.65"/>
<path d="M131.008 40.9969V33.5469H131.708L136.078 39.8169H135.808V33.5469H136.608V40.9969H135.908L131.538 34.6869H131.808V40.9969H131.008Z" fill="black" fill-opacity="0.65"/>
<path d="M123.883 40.9969V33.5469H128.683V34.2969H124.683V36.8869H128.483V37.6369H124.683V40.2469H128.683V40.9969H123.883Z" fill="black" fill-opacity="0.65"/>
<path d="M116.357 40.9969V34.2969H114.297V33.5469H119.197V34.2969H117.157V40.9969H116.357Z" fill="black" fill-opacity="0.65"/>
<path d="M107.945 40.9969V33.5469H112.745V34.2969H108.745V36.8869H112.545V37.6369H108.745V40.2469H112.745V40.9969H107.945Z" fill="black" fill-opacity="0.65"/>
<path d="M100.398 40.9969V33.5469H101.198V37.8969L101.018 37.8069L104.768 33.5469H105.768L102.758 36.9669L102.798 36.3969L105.948 40.9969H104.988L102.448 37.3269L101.198 38.7469V40.9969H100.398Z" fill="black" fill-opacity="0.65"/>
<path d="M92.9922 40.9969V33.5469H95.5522C96.0389 33.5469 96.4655 33.6435 96.8322 33.8369C97.1989 34.0235 97.4822 34.2902 97.6822 34.6369C97.8889 34.9769 97.9922 35.3735 97.9922 35.8269C97.9922 36.3535 97.8522 36.8035 97.5722 37.1769C97.2989 37.5502 96.9255 37.8135 96.4522 37.9669L98.1922 40.9969H97.2522L95.4322 37.7869L95.9722 38.0969H93.7922V40.9969H92.9922ZM93.7922 37.3469H95.5922C95.9122 37.3469 96.1922 37.2869 96.4322 37.1669C96.6722 37.0402 96.8589 36.8635 96.9922 36.6369C97.1255 36.4035 97.1922 36.1302 97.1922 35.8169C97.1922 35.5035 97.1255 35.2335 96.9922 35.0069C96.8589 34.7802 96.6722 34.6069 96.4322 34.4869C96.1922 34.3602 95.9122 34.2969 95.5922 34.2969H93.7922V37.3469Z" fill="black" fill-opacity="0.65"/>
<path d="M84.7031 40.9969L87.4231 33.5469H88.2831L91.0031 40.9969H90.1631L89.5231 39.1769H86.1931L85.5431 40.9969H84.7031ZM86.4531 38.4269H89.2431L87.7331 34.1469H87.9731L86.4531 38.4269Z" fill="black" fill-opacity="0.65"/>
<path d="M76.1094 40.9969V33.5469H76.8094L79.6094 37.6069H79.2194L82.0094 33.5469H82.7094V40.9969H81.9094V34.6269L82.1694 34.7269L79.4294 38.6969H79.3894L76.6594 34.7269L76.9094 34.6269V40.9969H76.1094Z" fill="black" fill-opacity="0.65"/>
<path d="M66.6016 40.9969V33.5469H71.2016V34.2969H67.4016V36.8869H70.9016V37.6369H67.4016V40.9969H66.6016Z" fill="black" fill-opacity="0.65"/>
<path d="M60.3316 41.1197C59.8116 41.1197 59.3249 41.0264 58.8716 40.8397C58.4249 40.6464 58.0316 40.3797 57.6916 40.0397C57.3516 39.693 57.0849 39.2864 56.8916 38.8197C56.6982 38.3464 56.6016 37.8297 56.6016 37.2697C56.6016 36.7097 56.6982 36.1964 56.8916 35.7297C57.0849 35.2564 57.3516 34.8497 57.6916 34.5097C58.0316 34.163 58.4249 33.8964 58.8716 33.7097C59.3249 33.523 59.8116 33.4297 60.3316 33.4297C60.8516 33.4297 61.3349 33.5264 61.7816 33.7197C62.2349 33.9064 62.6316 34.173 62.9716 34.5197C63.3116 34.8597 63.5782 35.263 63.7716 35.7297C63.9649 36.1964 64.0616 36.7097 64.0616 37.2697C64.0616 37.8297 63.9649 38.3464 63.7716 38.8197C63.5782 39.2864 63.3116 39.693 62.9716 40.0397C62.6316 40.3797 62.2349 40.6464 61.7816 40.8397C61.3349 41.0264 60.8516 41.1197 60.3316 41.1197ZM60.3316 40.3697C60.7649 40.3697 61.1582 40.2897 61.5116 40.1297C61.8716 39.9697 62.1816 39.7464 62.4416 39.4597C62.7016 39.173 62.9016 38.843 63.0416 38.4697C63.1882 38.0964 63.2616 37.6964 63.2616 37.2697C63.2616 36.8497 63.1882 36.453 63.0416 36.0797C62.9016 35.7064 62.7016 35.3764 62.4416 35.0897C62.1816 34.803 61.8716 34.5797 61.5116 34.4197C61.1582 34.2597 60.7649 34.1797 60.3316 34.1797C59.8982 34.1797 59.5016 34.2597 59.1416 34.4197C58.7882 34.5797 58.4816 34.803 58.2216 35.0897C57.9616 35.3764 57.7582 35.7064 57.6116 36.0797C57.4716 36.453 57.4016 36.8497 57.4016 37.2697C57.4016 37.6964 57.4716 38.0964 57.6116 38.4697C57.7582 38.843 57.9616 39.173 58.2216 39.4597C58.4816 39.7464 58.7916 39.9697 59.1516 40.1297C59.5116 40.2897 59.9049 40.3697 60.3316 40.3697Z" fill="black" fill-opacity="0.65"/>
<path d="M49.2944 40.9969V34.2969H47.2344V33.5469H52.1344V34.2969H50.0944V40.9969H49.2944Z" fill="black" fill-opacity="0.65"/>
<path d="M39.6406 40.9969V33.5469H40.3406L44.7106 39.8169H44.4406V33.5469H45.2406V40.9969H44.5406L40.1706 34.6869H40.4406V40.9969H39.6406Z" fill="black" fill-opacity="0.65"/>
<path d="M36.0859 40.9969V33.5469H36.8859V40.9969H36.0859Z" fill="black" fill-opacity="0.65"/>
<path d="M29.8159 41.1197C29.2959 41.1197 28.8093 41.0264 28.3559 40.8397C27.9093 40.6464 27.5159 40.3797 27.1759 40.0397C26.8359 39.693 26.5693 39.2864 26.3759 38.8197C26.1826 38.3464 26.0859 37.8297 26.0859 37.2697C26.0859 36.7097 26.1826 36.1964 26.3759 35.7297C26.5693 35.2564 26.8359 34.8497 27.1759 34.5097C27.5159 34.163 27.9093 33.8964 28.3559 33.7097C28.8093 33.523 29.2959 33.4297 29.8159 33.4297C30.3359 33.4297 30.8193 33.5264 31.2659 33.7197C31.7193 33.9064 32.1159 34.173 32.4559 34.5197C32.7959 34.8597 33.0626 35.263 33.2559 35.7297C33.4493 36.1964 33.5459 36.7097 33.5459 37.2697C33.5459 37.8297 33.4493 38.3464 33.2559 38.8197C33.0626 39.2864 32.7959 39.693 32.4559 40.0397C32.1159 40.3797 31.7193 40.6464 31.2659 40.8397C30.8193 41.0264 30.3359 41.1197 29.8159 41.1197ZM29.8159 40.3697C30.2493 40.3697 30.6426 40.2897 30.9959 40.1297C31.3559 39.9697 31.6659 39.7464 31.9259 39.4597C32.1859 39.173 32.3859 38.843 32.5259 38.4697C32.6726 38.0964 32.7459 37.6964 32.7459 37.2697C32.7459 36.8497 32.6726 36.453 32.5259 36.0797C32.3859 35.7064 32.1859 35.3764 31.9259 35.0897C31.6659 34.803 31.3559 34.5797 30.9959 34.4197C30.6426 34.2597 30.2493 34.1797 29.8159 34.1797C29.3826 34.1797 28.9859 34.2597 28.6259 34.4197C28.2726 34.5797 27.9659 34.803 27.7059 35.0897C27.4459 35.3764 27.2426 35.7064 27.0959 36.0797C26.9559 36.453 26.8859 36.8497 26.8859 37.2697C26.8859 37.6964 26.9559 38.0964 27.0959 38.4697C27.2426 38.843 27.4459 39.173 27.7059 39.4597C27.9659 39.7464 28.2759 39.9697 28.6359 40.1297C28.9959 40.2897 29.3893 40.3697 29.8159 40.3697Z" fill="black" fill-opacity="0.65"/>
<path d="M18.8828 40.9969V33.5469H21.4428C21.9295 33.5469 22.3561 33.6435 22.7228 33.8369C23.0895 34.0235 23.3728 34.2902 23.5728 34.6369C23.7795 34.9769 23.8828 35.3735 23.8828 35.8269C23.8828 36.2802 23.7795 36.6769 23.5728 37.0169C23.3728 37.3569 23.0895 37.6235 22.7228 37.8169C22.3628 38.0035 21.9361 38.0969 21.4428 38.0969H19.6828V40.9969H18.8828ZM19.6828 37.3469H21.4828C21.8028 37.3469 22.0828 37.2869 22.3228 37.1669C22.5628 37.0402 22.7495 36.8635 22.8828 36.6369C23.0161 36.4035 23.0828 36.1302 23.0828 35.8169C23.0828 35.5035 23.0161 35.2335 22.8828 35.0069C22.7495 34.7802 22.5628 34.6069 22.3228 34.4869C22.0828 34.3602 21.8028 34.2969 21.4828 34.2969H19.6828V37.3469Z" fill="black" fill-opacity="0.65"/>
</svg>
